<svg xmlns="http://www.w3.org/2000/svg" viewBox="0 0 15 24" width="100%" height="100%" fill="currentColor">
    <path d="M14.4 15.3a4.9 4.9 0 0 1-4.5 5.1H8.4v2.4A1.3 1.3 0 0 1 7.3 24 1.2 1.2 0 0 1 6 22.8v-2.4a14.9 14.9 0 0 1-2.1-.2C2.2 19.8.5 18.4.4 16.6a1.2 1.2 0 0 1 2.3-.2A2.4 2.4 0 0 0 4.9 18h4.7a2.4 2.4 0 0 0 2.4-2.7 2.3 2.3 0 0 0-2.4-2.1H4.8A4.9 4.9 0 0 1 0 8.1a4.8 4.8 0 0 1 4.7-4.5H6V1.2A1.2 1.2 0 0 1 7.3 0a1.3 1.3 0 0 1 1.1 1.2v2.4a6.6 6.6 0 0 1 2 .1C12.1 4 14 5.6 14 7.4a1.2 1.2 0 0 1-2.3.2A2.3 2.3 0 0 0 9.4 6H4.8c-3.2 0-3.2 4.7 0 4.8h4.9a4.8 4.8 0 0 1 4.7 4.5Z"/>
</svg>